# xmcd CD database file
#
# Track frame offsets:
#	150
#	18132
#	40699
#	58578
#	71240
#	91924
#	115316
#	137128
#	157432
#	183632
#	206281
#	222801
#
# Disc length: 3262 seconds
#
# Revision: 5
# Processed by: cddbd v1.4PL0 Copyright (c) Steve Scherf et al.
# Submitted via: CDex 1.50beta10
#
DISCID=ad0cbc0c
DTITLE=Gordon Haskell - Harry's bar
DYEAR=2002
DGENRE=Blues
TTITLE0=How wonderful you are
TTITLE1=All the time in the world
TTITLE2=Voodoo dance
TTITLE3=Freeway to her dreams
TTITLE4=Sunshine in the night
TTITLE5=Al Capone
TTITLE6=Feelin' loose
TTITLE7=There goes my heart again
TTITLE8=Roll with it
TTITLE9=Someone I knew
TTITLE10=A little help from you
TTITLE11=All in the scheme of things
EXTD=YEAR: 2002
EXTT0=
EXTT1=
EXTT2=
EXTT3=
EXTT4=
EXTT5=
EXTT6=
EXTT7=
EXTT8=
EXTT9=
EXTT10=
EXTT11=
PLAYORDER=
